<svg viewBox="0 0 700 700" xmlns="http://www.w3.org/2000/svg">

  <!-- Background -->
  <rect width="700" height="700" fill="#f5edd6"/>

  <!-- Board outline (flat-top hexagonal border) -->
  <polygon points="190,95 510,95 640,350 510,605 190,605 60,350"
    fill="#e8dfc8" stroke="#1a1a1a" stroke-width="3"/>

  <!-- Row A (y=126): 5 hexes -->
  <!-- A1 --> <circle cx="222" cy="126" r="22" fill="#1a1a1a" stroke="#000" stroke-width="2"/>
  <!-- A2 --> <circle cx="286" cy="126" r="22" fill="#1a1a1a" stroke="#000" stroke-width="2"/>
  <!-- A3 --> <circle cx="350" cy="126" r="22" fill="#1a1a1a" stroke="#000" stroke-width="2"/>
  <!-- A4 --> <circle cx="414" cy="126" r="22" fill="#1a1a1a" stroke="#000" stroke-width="2"/>
  <!-- A5 --> <circle cx="478" cy="126" r="22" fill="#1a1a1a" stroke="#000" stroke-width="2"/>

  <!-- Row B (y=182): 6 hexes -->
  <!-- B1 --> <circle cx="190" cy="182" r="22" fill="#1a1a1a" stroke="#000" stroke-width="2"/>
  <!-- B2 --> <circle cx="254" cy="182" r="22" fill="#1a1a1a" stroke="#000" stroke-width="2"/>
  <!-- B3 --> <circle cx="318" cy="182" r="22" fill="#1a1a1a" stroke="#000" stroke-width="2"/>
  <!-- B4 --> <circle cx="382" cy="182" r="22" fill="#1a1a1a" stroke="#000" stroke-width="2"/>
  <!-- B5 --> <circle cx="446" cy="182" r="22" fill="#1a1a1a" stroke="#000" stroke-width="2"/>
  <!-- B6 --> <circle cx="510" cy="182" r="22" fill="#1a1a1a" stroke="#000" stroke-width="2"/>

  <!-- Row C (y=238): 7 hexes -->
  <!-- C1 --> <circle cx="158" cy="238" r="14" fill="#d4a574" stroke="#a0764a" stroke-width="2"/>
  <!-- C2 --> <circle cx="222" cy="238" r="14" fill="#d4a574" stroke="#a0764a" stroke-width="2"/>
  <!-- C3 --> <circle cx="286" cy="238" r="22" fill="#1a1a1a" stroke="#000" stroke-width="2"/>
  <!-- C4 --> <circle cx="350" cy="238" r="22" fill="#1a1a1a" stroke="#000" stroke-width="2"/>
  <!-- C5 --> <circle cx="414" cy="238" r="22" fill="#1a1a1a" stroke="#000" stroke-width="2"/>
  <!-- C6 --> <circle cx="478" cy="238" r="14" fill="#d4a574" stroke="#a0764a" stroke-width="2"/>
  <!-- C7 --> <circle cx="542" cy="238" r="14" fill="#d4a574" stroke="#a0764a" stroke-width="2"/>

  <!-- Row D (y=294): 8 hexes -->
  <!-- D1 --> <circle cx="126" cy="294" r="14" fill="#d4a574" stroke="#a0764a" stroke-width="2"/>
  <!-- D2 --> <circle cx="190" cy="294" r="14" fill="#d4a574" stroke="#a0764a" stroke-width="2"/>
  <!-- D3 --> <circle cx="254" cy="294" r="14" fill="#d4a574" stroke="#a0764a" stroke-width="2"/>
  <!-- D4 --> <circle cx="318" cy="294" r="14" fill="#d4a574" stroke="#a0764a" stroke-width="2"/>
  <!-- D5 --> <circle cx="382" cy="294" r="14" fill="#d4a574" stroke="#a0764a" stroke-width="2"/>
  <!-- D6 --> <circle cx="446" cy="294" r="14" fill="#d4a574" stroke="#a0764a" stroke-width="2"/>
  <!-- D7 --> <circle cx="510" cy="294" r="14" fill="#d4a574" stroke="#a0764a" stroke-width="2"/>
  <!-- D8 --> <circle cx="574" cy="294" r="14" fill="#d4a574" stroke="#a0764a" stroke-width="2"/>

  <!-- Row E (y=350): 9 hexes (center row) -->
  <!-- E1 --> <circle cx="94"  cy="350" r="14" fill="#d4a574" stroke="#a0764a" stroke-width="2"/>
  <!-- E2 --> <circle cx="158" cy="350" r="14" fill="#d4a574" stroke="#a0764a" stroke-width="2"/>
  <!-- E3 --> <circle cx="222" cy="350" r="14" fill="#d4a574" stroke="#a0764a" stroke-width="2"/>
  <!-- E4 --> <circle cx="286" cy="350" r="14" fill="#d4a574" stroke="#a0764a" stroke-width="2"/>
  <!-- E5 --> <circle cx="350" cy="350" r="14" fill="#d4a574" stroke="#a0764a" stroke-width="2"/>
  <!-- E6 --> <circle cx="414" cy="350" r="14" fill="#d4a574" stroke="#a0764a" stroke-width="2"/>
  <!-- E7 --> <circle cx="478" cy="350" r="14" fill="#d4a574" stroke="#a0764a" stroke-width="2"/>
  <!-- E8 --> <circle cx="542" cy="350" r="14" fill="#d4a574" stroke="#a0764a" stroke-width="2"/>
  <!-- E9 --> <circle cx="606" cy="350" r="14" fill="#d4a574" stroke="#a0764a" stroke-width="2"/>

  <!-- Row F (y=406): 8 hexes -->
  <!-- F1 --> <circle cx="126" cy="406" r="14" fill="#d4a574" stroke="#a0764a" stroke-width="2"/>
  <!-- F2 --> <circle cx="190" cy="406" r="14" fill="#d4a574" stroke="#a0764a" stroke-width="2"/>
  <!-- F3 --> <circle cx="254" cy="406" r="14" fill="#d4a574" stroke="#a0764a" stroke-width="2"/>
  <!-- F4 --> <circle cx="318" cy="406" r="14" fill="#d4a574" stroke="#a0764a" stroke-width="2"/>
  <!-- F5 --> <circle cx="382" cy="406" r="14" fill="#d4a574" stroke="#a0764a" stroke-width="2"/>
  <!-- F6 --> <circle cx="446" cy="406" r="14" fill="#d4a574" stroke="#a0764a" stroke-width="2"/>
  <!-- F7 --> <circle cx="510" cy="406" r="14" fill="#d4a574" stroke="#a0764a" stroke-width="2"/>
  <!-- F8 --> <circle cx="574" cy="406" r="14" fill="#d4a574" stroke="#a0764a" stroke-width="2"/>

  <!-- Row G (y=462): 7 hexes -->
  <!-- G1 --> <circle cx="158" cy="462" r="14" fill="#d4a574" stroke="#a0764a" stroke-width="2"/>
  <!-- G2 --> <circle cx="222" cy="462" r="14" fill="#d4a574" stroke="#a0764a" stroke-width="2"/>
  <!-- G3 --> <circle cx="286" cy="462" r="22" fill="#fefefe" stroke="#555" stroke-width="2"/>
  <!-- G4 --> <circle cx="350" cy="462" r="22" fill="#fefefe" stroke="#555" stroke-width="2"/>
  <!-- G5 --> <circle cx="414" cy="462" r="22" fill="#fefefe" stroke="#555" stroke-width="2"/>
  <!-- G6 --> <circle cx="478" cy="462" r="14" fill="#d4a574" stroke="#a0764a" stroke-width="2"/>
  <!-- G7 --> <circle cx="542" cy="462" r="14" fill="#d4a574" stroke="#a0764a" stroke-width="2"/>

  <!-- Row H (y=518): 6 hexes -->
  <!-- H1 --> <circle cx="190" cy="518" r="22" fill="#fefefe" stroke="#555" stroke-width="2"/>
  <!-- H2 --> <circle cx="254" cy="518" r="22" fill="#fefefe" stroke="#555" stroke-width="2"/>
  <!-- H3 --> <circle cx="318" cy="518" r="22" fill="#fefefe" stroke="#555" stroke-width="2"/>
  <!-- H4 --> <circle cx="382" cy="518" r="22" fill="#fefefe" stroke="#555" stroke-width="2"/>
  <!-- H5 --> <circle cx="446" cy="518" r="22" fill="#fefefe" stroke="#555" stroke-width="2"/>
  <!-- H6 --> <circle cx="510" cy="518" r="22" fill="#fefefe" stroke="#555" stroke-width="2"/>

  <!-- Row I (y=574): 5 hexes -->
  <!-- I1 --> <circle cx="222" cy="574" r="22" fill="#fefefe" stroke="#555" stroke-width="2"/>
  <!-- I2 --> <circle cx="286" cy="574" r="22" fill="#fefefe" stroke="#555" stroke-width="2"/>
  <!-- I3 --> <circle cx="350" cy="574" r="22" fill="#fefefe" stroke="#555" stroke-width="2"/>
  <!-- I4 --> <circle cx="414" cy="574" r="22" fill="#fefefe" stroke="#555" stroke-width="2"/>
  <!-- I5 --> <circle cx="478" cy="574" r="22" fill="#fefefe" stroke="#555" stroke-width="2"/>

  <!-- NODE LABELS -->
  <style>
    .label { font-size: 9px; fill: #999; font-family: Georgia, serif; letter-spacing: 0.04em; }
    .rlabel { font-size: 11px; fill: #888; font-family: Georgia, serif; font-weight: bold; }
  </style>

  <!-- Row labels (left side) -->
  <text class="rlabel" x="200" y="130" text-anchor="end">A</text>
  <text class="rlabel" x="168" y="186" text-anchor="end">B</text>
  <text class="rlabel" x="136" y="242" text-anchor="end">C</text>
  <text class="rlabel" x="104" y="298" text-anchor="end">D</text>
  <text class="rlabel" x="72"  y="354" text-anchor="end">E</text>
  <text class="rlabel" x="104" y="410" text-anchor="end">F</text>
  <text class="rlabel" x="136" y="466" text-anchor="end">G</text>
  <text class="rlabel" x="168" y="522" text-anchor="end">H</text>
  <text class="rlabel" x="200" y="578" text-anchor="end">I</text>

  <!-- Column numbers (bottom of each row, below pieces) -->
  <!-- Row I column numbers as reference -->
  <text class="label" x="222" y="600" text-anchor="middle">1</text>
  <text class="label" x="286" y="600" text-anchor="middle">2</text>
  <text class="label" x="350" y="600" text-anchor="middle">3</text>
  <text class="label" x="414" y="600" text-anchor="middle">4</text>
  <text class="label" x="478" y="600" text-anchor="middle">5</text>

  <!-- Row E column numbers (widest row, for reference) -->
  <text class="label" x="94"  y="376" text-anchor="middle">1</text>
  <text class="label" x="158" y="376" text-anchor="middle">2</text>
  <text class="label" x="222" y="376" text-anchor="middle">3</text>
  <text class="label" x="286" y="376" text-anchor="middle">4</text>
  <text class="label" x="350" y="376" text-anchor="middle">5</text>
  <text class="label" x="414" y="376" text-anchor="middle">6</text>
  <text class="label" x="478" y="376" text-anchor="middle">7</text>
  <text class="label" x="542" y="376" text-anchor="middle">8</text>
  <text class="label" x="606" y="376" text-anchor="middle">9</text>

</svg>
