<svg viewBox="0 0 900 500" xmlns="http://www.w3.org/2000/svg">

  <!-- Background -->
  <rect width="900" height="500" fill="#f5edd6"/>

  <!-- ═══ BOARD LINES ═══ -->

  <!-- Horizontal lines (5 rows) -->
  <line x1="50" y1="50"  x2="850" y2="50"  stroke="#1a1a1a" stroke-width="2"/>
  <line x1="50" y1="150" x2="850" y2="150" stroke="#1a1a1a" stroke-width="2"/>
  <line x1="50" y1="250" x2="850" y2="250" stroke="#1a1a1a" stroke-width="2"/>
  <line x1="50" y1="350" x2="850" y2="350" stroke="#1a1a1a" stroke-width="2"/>
  <line x1="50" y1="450" x2="850" y2="450" stroke="#1a1a1a" stroke-width="2"/>

  <!-- Vertical lines (9 columns) -->
  <line x1="50"  y1="50" x2="50"  y2="450" stroke="#1a1a1a" stroke-width="2"/>
  <line x1="150" y1="50" x2="150" y2="450" stroke="#1a1a1a" stroke-width="2"/>
  <line x1="250" y1="50" x2="250" y2="450" stroke="#1a1a1a" stroke-width="2"/>
  <line x1="350" y1="50" x2="350" y2="450" stroke="#1a1a1a" stroke-width="2"/>
  <line x1="450" y1="50" x2="450" y2="450" stroke="#1a1a1a" stroke-width="2"/>
  <line x1="550" y1="50" x2="550" y2="450" stroke="#1a1a1a" stroke-width="2"/>
  <line x1="650" y1="50" x2="650" y2="450" stroke="#1a1a1a" stroke-width="2"/>
  <line x1="750" y1="50" x2="750" y2="450" stroke="#1a1a1a" stroke-width="2"/>
  <line x1="850" y1="50" x2="850" y2="450" stroke="#1a1a1a" stroke-width="2"/>

  <!-- Diagonal lines (matching game code: both endpoints must have hasDiagonals) -->
  <!-- hasDiagonals(col,row) = (col + row) % 2 == 1, col 0-indexed, row 1-indexed -->
  <!-- This produces one diagonal per cell, alternating direction -->
  <line x1="50" y1="450" x2="150" y2="350" stroke="#999" stroke-width="1.5"/>
  <line x1="50" y1="250" x2="150" y2="150" stroke="#999" stroke-width="1.5"/>
  <line x1="50" y1="250" x2="150" y2="350" stroke="#999" stroke-width="1.5"/>
  <line x1="50" y1="50" x2="150" y2="150" stroke="#999" stroke-width="1.5"/>
  <line x1="150" y1="350" x2="250" y2="250" stroke="#999" stroke-width="1.5"/>
  <line x1="150" y1="350" x2="250" y2="450" stroke="#999" stroke-width="1.5"/>
  <line x1="150" y1="150" x2="250" y2="50" stroke="#999" stroke-width="1.5"/>
  <line x1="150" y1="150" x2="250" y2="250" stroke="#999" stroke-width="1.5"/>
  <line x1="250" y1="450" x2="350" y2="350" stroke="#999" stroke-width="1.5"/>
  <line x1="250" y1="250" x2="350" y2="150" stroke="#999" stroke-width="1.5"/>
  <line x1="250" y1="250" x2="350" y2="350" stroke="#999" stroke-width="1.5"/>
  <line x1="250" y1="50" x2="350" y2="150" stroke="#999" stroke-width="1.5"/>
  <line x1="350" y1="350" x2="450" y2="250" stroke="#999" stroke-width="1.5"/>
  <line x1="350" y1="350" x2="450" y2="450" stroke="#999" stroke-width="1.5"/>
  <line x1="350" y1="150" x2="450" y2="50" stroke="#999" stroke-width="1.5"/>
  <line x1="350" y1="150" x2="450" y2="250" stroke="#999" stroke-width="1.5"/>
  <line x1="450" y1="450" x2="550" y2="350" stroke="#999" stroke-width="1.5"/>
  <line x1="450" y1="250" x2="550" y2="150" stroke="#999" stroke-width="1.5"/>
  <line x1="450" y1="250" x2="550" y2="350" stroke="#999" stroke-width="1.5"/>
  <line x1="450" y1="50" x2="550" y2="150" stroke="#999" stroke-width="1.5"/>
  <line x1="550" y1="350" x2="650" y2="250" stroke="#999" stroke-width="1.5"/>
  <line x1="550" y1="350" x2="650" y2="450" stroke="#999" stroke-width="1.5"/>
  <line x1="550" y1="150" x2="650" y2="50" stroke="#999" stroke-width="1.5"/>
  <line x1="550" y1="150" x2="650" y2="250" stroke="#999" stroke-width="1.5"/>
  <line x1="650" y1="450" x2="750" y2="350" stroke="#999" stroke-width="1.5"/>
  <line x1="650" y1="250" x2="750" y2="150" stroke="#999" stroke-width="1.5"/>
  <line x1="650" y1="250" x2="750" y2="350" stroke="#999" stroke-width="1.5"/>
  <line x1="650" y1="50" x2="750" y2="150" stroke="#999" stroke-width="1.5"/>
  <line x1="750" y1="350" x2="850" y2="250" stroke="#999" stroke-width="1.5"/>
  <line x1="750" y1="350" x2="850" y2="450" stroke="#999" stroke-width="1.5"/>
  <line x1="750" y1="150" x2="850" y2="50" stroke="#999" stroke-width="1.5"/>
  <line x1="750" y1="150" x2="850" y2="250" stroke="#999" stroke-width="1.5"/>

  <!-- ═══ INITIAL SETUP ═══ -->

  <!-- Row 5 (y=50): all White -->
  <circle cx="50"  cy="50"  r="14" fill="#fefefe" stroke="#555" stroke-width="2"/>
  <circle cx="150" cy="50"  r="14" fill="#fefefe" stroke="#555" stroke-width="2"/>
  <circle cx="250" cy="50"  r="14" fill="#fefefe" stroke="#555" stroke-width="2"/>
  <circle cx="350" cy="50"  r="14" fill="#fefefe" stroke="#555" stroke-width="2"/>
  <circle cx="450" cy="50"  r="14" fill="#fefefe" stroke="#555" stroke-width="2"/>
  <circle cx="550" cy="50"  r="14" fill="#fefefe" stroke="#555" stroke-width="2"/>
  <circle cx="650" cy="50"  r="14" fill="#fefefe" stroke="#555" stroke-width="2"/>
  <circle cx="750" cy="50"  r="14" fill="#fefefe" stroke="#555" stroke-width="2"/>
  <circle cx="850" cy="50"  r="14" fill="#fefefe" stroke="#555" stroke-width="2"/>

  <!-- Row 4 (y=150): all White -->
  <circle cx="50"  cy="150" r="14" fill="#fefefe" stroke="#555" stroke-width="2"/>
  <circle cx="150" cy="150" r="14" fill="#fefefe" stroke="#555" stroke-width="2"/>
  <circle cx="250" cy="150" r="14" fill="#fefefe" stroke="#555" stroke-width="2"/>
  <circle cx="350" cy="150" r="14" fill="#fefefe" stroke="#555" stroke-width="2"/>
  <circle cx="450" cy="150" r="14" fill="#fefefe" stroke="#555" stroke-width="2"/>
  <circle cx="550" cy="150" r="14" fill="#fefefe" stroke="#555" stroke-width="2"/>
  <circle cx="650" cy="150" r="14" fill="#fefefe" stroke="#555" stroke-width="2"/>
  <circle cx="750" cy="150" r="14" fill="#fefefe" stroke="#555" stroke-width="2"/>
  <circle cx="850" cy="150" r="14" fill="#fefefe" stroke="#555" stroke-width="2"/>

  <!-- Row 3 (y=250): alternating, center empty -->
  <circle cx="50"  cy="250" r="14" fill="#1a1a1a" stroke="#000" stroke-width="2"/>
  <circle cx="150" cy="250" r="14" fill="#fefefe" stroke="#555" stroke-width="2"/>
  <circle cx="250" cy="250" r="14" fill="#1a1a1a" stroke="#000" stroke-width="2"/>
  <circle cx="350" cy="250" r="14" fill="#fefefe" stroke="#555" stroke-width="2"/>
  <circle cx="450" cy="250" r="14" fill="#d4a574" stroke="#a0764a" stroke-width="2"/><!-- empty center -->
  <circle cx="550" cy="250" r="14" fill="#1a1a1a" stroke="#000" stroke-width="2"/>
  <circle cx="650" cy="250" r="14" fill="#fefefe" stroke="#555" stroke-width="2"/>
  <circle cx="750" cy="250" r="14" fill="#1a1a1a" stroke="#000" stroke-width="2"/>
  <circle cx="850" cy="250" r="14" fill="#fefefe" stroke="#555" stroke-width="2"/>

  <!-- Row 2 (y=350): all Black -->
  <circle cx="50"  cy="350" r="14" fill="#1a1a1a" stroke="#000" stroke-width="2"/>
  <circle cx="150" cy="350" r="14" fill="#1a1a1a" stroke="#000" stroke-width="2"/>
  <circle cx="250" cy="350" r="14" fill="#1a1a1a" stroke="#000" stroke-width="2"/>
  <circle cx="350" cy="350" r="14" fill="#1a1a1a" stroke="#000" stroke-width="2"/>
  <circle cx="450" cy="350" r="14" fill="#1a1a1a" stroke="#000" stroke-width="2"/>
  <circle cx="550" cy="350" r="14" fill="#1a1a1a" stroke="#000" stroke-width="2"/>
  <circle cx="650" cy="350" r="14" fill="#1a1a1a" stroke="#000" stroke-width="2"/>
  <circle cx="750" cy="350" r="14" fill="#1a1a1a" stroke="#000" stroke-width="2"/>
  <circle cx="850" cy="350" r="14" fill="#1a1a1a" stroke="#000" stroke-width="2"/>

  <!-- Row 1 (y=450): all Black -->
  <circle cx="50"  cy="450" r="14" fill="#1a1a1a" stroke="#000" stroke-width="2"/>
  <circle cx="150" cy="450" r="14" fill="#1a1a1a" stroke="#000" stroke-width="2"/>
  <circle cx="250" cy="450" r="14" fill="#1a1a1a" stroke="#000" stroke-width="2"/>
  <circle cx="350" cy="450" r="14" fill="#1a1a1a" stroke="#000" stroke-width="2"/>
  <circle cx="450" cy="450" r="14" fill="#1a1a1a" stroke="#000" stroke-width="2"/>
  <circle cx="550" cy="450" r="14" fill="#1a1a1a" stroke="#000" stroke-width="2"/>
  <circle cx="650" cy="450" r="14" fill="#1a1a1a" stroke="#000" stroke-width="2"/>
  <circle cx="750" cy="450" r="14" fill="#1a1a1a" stroke="#000" stroke-width="2"/>
  <circle cx="850" cy="450" r="14" fill="#1a1a1a" stroke="#000" stroke-width="2"/>

  <!-- ═══ NODE LABELS ═══ -->
  <style>
    .label { font-size: 10px; fill: #888; font-family: Georgia, serif;
             letter-spacing: 0.04em; }
  </style>

  <!-- Column labels (top) -->
  <text class="label" x="50"  y="30" text-anchor="middle">A</text>
  <text class="label" x="150" y="30" text-anchor="middle">B</text>
  <text class="label" x="250" y="30" text-anchor="middle">C</text>
  <text class="label" x="350" y="30" text-anchor="middle">D</text>
  <text class="label" x="450" y="30" text-anchor="middle">E</text>
  <text class="label" x="550" y="30" text-anchor="middle">F</text>
  <text class="label" x="650" y="30" text-anchor="middle">G</text>
  <text class="label" x="750" y="30" text-anchor="middle">H</text>
  <text class="label" x="850" y="30" text-anchor="middle">I</text>

  <!-- Row labels (left) -->
  <text class="label" x="28" y="54"  text-anchor="end">5</text>
  <text class="label" x="28" y="154" text-anchor="end">4</text>
  <text class="label" x="28" y="254" text-anchor="end">3</text>
  <text class="label" x="28" y="354" text-anchor="end">2</text>
  <text class="label" x="28" y="454" text-anchor="end">1</text>

</svg>
