<svg 
  viewBox="54.0 84.3 618.0 557.5"
  xmlns="http://www.w3.org/2000/svg">

  <!-- ═══ OUTER RING (hex_100–hex_123) ═══ -->
  <path d="M 198,153.421852284166 198,115.316734517651 231,96.2641756343929 264,115.316734517651 264,153.421852284166 231,172.474411167423 198,153.421852284166 Z" style="fill:#f9f9f9;stroke:#1a1a1a;stroke-width:2"/>
  <path d="M 165,210.579528933939 165,172.474411167423 198,153.421852284166 231,172.474411167423 231,210.579528933939 198,229.632087817196 165,210.579528933939 Z" style="fill:#f9f9f9;stroke:#1a1a1a;stroke-width:2"/>
  <path d="M 132,267.737205583712 132,229.632087817196 165,210.579528933939 198,229.632087817196 198,267.737205583712 165,286.789764466969 132,267.737205583712 Z" style="fill:#f9f9f9;stroke:#1a1a1a;stroke-width:2"/>
  <path d="M 99,324.894882233485 99,286.789764466969 132,267.737205583712 165,286.789764466969 165,324.894882233485 132,343.947441116742 99,324.894882233485 Z" style="fill:#f9f9f9;stroke:#1a1a1a;stroke-width:2"/>
  <path d="M 66,382.052558883258 66,343.947441116742 99,324.894882233485 132,343.947441116742 132,382.052558883258 99,401.105117766515 66,382.052558883258 Z" style="fill:#f9f9f9;stroke:#1a1a1a;stroke-width:2"/>
  <path d="M 99,439.210235533031 99,401.105117766515 132,382.052558883258 165,401.105117766515 165,439.210235533031 132,458.262794416288 99,439.210235533031 Z" style="fill:#f9f9f9;stroke:#1a1a1a;stroke-width:2"/>
  <path d="M 132,496.367912182803 132,458.262794416288 165,439.21023553303 198,458.262794416288 198,496.367912182803 165,515.420471066061 132,496.367912182803 Z" style="fill:#f9f9f9;stroke:#1a1a1a;stroke-width:2"/>
  <path d="M 165,553.525588832576 165,515.420471066061 198,496.367912182803 231,515.420471066061 231,553.525588832576 198,572.578147715834 165,553.525588832576 Z" style="fill:#f9f9f9;stroke:#1a1a1a;stroke-width:2"/>
  <path d="M 198,610.683265482349 198,572.578147715834 231,553.525588832577 264,572.578147715834 264,610.683265482349 231,629.735824365607 198,610.683265482349 Z" style="fill:#f9f9f9;stroke:#1a1a1a;stroke-width:2"/>
  <path d="M 264,610.683265482349 264,572.578147715834 297,553.525588832577 330,572.578147715834 330,610.683265482349 297,629.735824365607 264,610.683265482349 Z" style="fill:#f9f9f9;stroke:#1a1a1a;stroke-width:2"/>
  <path d="M 330,610.683265482349 330,572.578147715834 363,553.525588832577 396,572.578147715834 396,610.683265482349 363,629.735824365607 330,610.683265482349 Z" style="fill:#f9f9f9;stroke:#1a1a1a;stroke-width:2"/>
  <path d="M 396,610.683265482349 396,572.578147715834 429,553.525588832577 462,572.578147715834 462,610.683265482349 429,629.735824365607 396,610.683265482349 Z" style="fill:#f9f9f9;stroke:#1a1a1a;stroke-width:2"/>
  <path d="M 462,610.683265482349 462,572.578147715834 495,553.525588832577 528,572.578147715834 528,610.683265482349 495,629.735824365607 462,610.683265482349 Z" style="fill:#f9f9f9;stroke:#1a1a1a;stroke-width:2"/>
  <path d="M 495,553.525588832577 495,515.420471066061 528,496.367912182804 561,515.420471066061 561,553.525588832577 528,572.578147715834 495,553.525588832577 Z" style="fill:#f9f9f9;stroke:#1a1a1a;stroke-width:2"/>
  <path d="M 528,496.367912182804 528,458.262794416288 561,439.210235533031 594,458.262794416288 594,496.367912182804 561,515.420471066061 528,496.367912182804 Z" style="fill:#f9f9f9;stroke:#1a1a1a;stroke-width:2"/>
  <path d="M 561,439.210235533031 561,401.105117766515 594,382.052558883258 627,401.105117766515 627,439.210235533031 594,458.262794416288 561,439.210235533031 Z" style="fill:#f9f9f9;stroke:#1a1a1a;stroke-width:2"/>
  <path d="M 594,382.052558883258 594,343.947441116742 627,324.894882233485 660,343.947441116742 660,382.052558883258 627,401.105117766515 594,382.052558883258 Z" style="fill:#f9f9f9;stroke:#1a1a1a;stroke-width:2"/>
  <path d="M 561,324.894882233485 561,286.789764466969 594,267.737205583712 627,286.789764466969 627,324.894882233485 594,343.947441116742 561,324.894882233485 Z" style="fill:#f9f9f9;stroke:#1a1a1a;stroke-width:2"/>
  <path d="M 528,267.737205583712 528,229.632087817196 561,210.579528933939 594,229.632087817196 594,267.737205583712 561,286.789764466969 528,267.737205583712 Z" style="fill:#f9f9f9;stroke:#1a1a1a;stroke-width:2"/>
  <path d="M 495,210.579528933939 495,172.474411167424 528,153.421852284166 561,172.474411167424 561,210.579528933939 528,229.632087817196 495,210.579528933939 Z" style="fill:#f9f9f9;stroke:#1a1a1a;stroke-width:2"/>
  <path d="M 462,153.421852284166 462,115.316734517651 495,96.2641756343929 528,115.316734517651 528,153.421852284166 495,172.474411167424 462,153.421852284166 Z" style="fill:#f9f9f9;stroke:#1a1a1a;stroke-width:2"/>
  <path d="M 396,153.421852284166 396,115.316734517651 429,96.2641756343929 462,115.316734517651 462,153.421852284166 429,172.474411167424 396,153.421852284166 Z" style="fill:#f9f9f9;stroke:#1a1a1a;stroke-width:2"/>
  <path d="M 330,153.421852284166 330,115.316734517651 363,96.2641756343929 396,115.316734517651 396,153.421852284166 363,172.474411167424 330,153.421852284166 Z" style="fill:#f9f9f9;stroke:#1a1a1a;stroke-width:2"/>
  <path d="M 264,153.421852284166 264,115.316734517651 297,96.2641756343929 330,115.316734517651 330,153.421852284166 297,172.474411167424 264,153.421852284166 Z" style="fill:#f9f9f9;stroke:#1a1a1a;stroke-width:2"/>

  <!-- ═══ SECOND RING (hex_124–hex_141) ═══ -->
  <path d="M 231,210.579528933939 231,172.474411167424 264,153.421852284166 297,172.474411167424 297,210.579528933939 264,229.632087817196 231,210.579528933939 Z" style="fill:#b8b8b8;stroke:#1a1a1a;stroke-width:2"/>
  <path d="M 198,267.737205583712 198,229.632087817196 231,210.579528933939 264,229.632087817196 264,267.737205583712 231,286.789764466969 198,267.737205583712 Z" style="fill:#b8b8b8;stroke:#1a1a1a;stroke-width:2"/>
  <path d="M 165,324.894882233485 165,286.789764466969 198,267.737205583712 231,286.789764466969 231,324.894882233485 198,343.947441116742 165,324.894882233485 Z" style="fill:#b8b8b8;stroke:#1a1a1a;stroke-width:2"/>
  <path d="M 132,382.052558883258 132,343.947441116742 165,324.894882233485 198,343.947441116742 198,382.052558883258 165,401.105117766515 132,382.052558883258 Z" style="fill:#b8b8b8;stroke:#1a1a1a;stroke-width:2"/>
  <path d="M 165,439.210235533031 165,401.105117766515 198,382.052558883258 231,401.105117766515 231,439.210235533031 198,458.262794416288 165,439.210235533031 Z" style="fill:#b8b8b8;stroke:#1a1a1a;stroke-width:2"/>
  <path d="M 198,496.367912182804 198,458.262794416288 231,439.210235533031 264,458.262794416288 264,496.367912182804 231,515.420471066061 198,496.367912182804 Z" style="fill:#b8b8b8;stroke:#1a1a1a;stroke-width:2"/>
  <path d="M 231,553.525588832576 231,515.420471066061 264,496.367912182803 297,515.420471066061 297,553.525588832576 264,572.578147715834 231,553.525588832576 Z" style="fill:#b8b8b8;stroke:#1a1a1a;stroke-width:2"/>
  <path d="M 297,553.525588832576 297,515.420471066061 330,496.367912182803 363,515.420471066061 363,553.525588832576 330,572.578147715834 297,553.525588832576 Z" style="fill:#b8b8b8;stroke:#1a1a1a;stroke-width:2"/>
  <path d="M 363,553.525588832576 363,515.420471066061 396,496.367912182803 429,515.420471066061 429,553.525588832576 396,572.578147715834 363,553.525588832576 Z" style="fill:#b8b8b8;stroke:#1a1a1a;stroke-width:2"/>
  <path d="M 429,553.525588832576 429,515.420471066061 462,496.367912182803 495,515.420471066061 495,553.525588832576 462,572.578147715834 429,553.525588832576 Z" style="fill:#b8b8b8;stroke:#1a1a1a;stroke-width:2"/>
  <path d="M 462,496.367912182803 462,458.262794416288 495,439.21023553303 528,458.262794416288 528,496.367912182803 495,515.420471066061 462,496.367912182803 Z" style="fill:#b8b8b8;stroke:#1a1a1a;stroke-width:2"/>
  <path d="M 495,439.210235533031 495,401.105117766515 528,382.052558883258 561,401.105117766515 561,439.210235533031 528,458.262794416288 495,439.210235533031 Z" style="fill:#b8b8b8;stroke:#1a1a1a;stroke-width:2"/>
  <path d="M 528,382.052558883258 528,343.947441116742 561,324.894882233485 594,343.947441116742 594,382.052558883258 561,401.105117766515 528,382.052558883258 Z" style="fill:#b8b8b8;stroke:#1a1a1a;stroke-width:2"/>
  <path d="M 495,324.894882233485 495,286.789764466969 528,267.737205583712 561,286.789764466969 561,324.894882233485 528,343.947441116742 495,324.894882233485 Z" style="fill:#b8b8b8;stroke:#1a1a1a;stroke-width:2"/>
  <path d="M 462,267.737205583712 462,229.632087817196 495,210.579528933939 528,229.632087817196 528,267.737205583712 495,286.789764466969 462,267.737205583712 Z" style="fill:#b8b8b8;stroke:#1a1a1a;stroke-width:2"/>
  <path d="M 429,210.579528933939 429,172.474411167423 462,153.421852284166 495,172.474411167423 495,210.579528933939 462,229.632087817196 429,210.579528933939 Z" style="fill:#b8b8b8;stroke:#1a1a1a;stroke-width:2"/>
  <path d="M 363,210.579528933939 363,172.474411167423 396,153.421852284166 429,172.474411167423 429,210.579528933939 396,229.632087817196 363,210.579528933939 Z" style="fill:#b8b8b8;stroke:#1a1a1a;stroke-width:2"/>
  <path d="M 297,210.579528933939 297,172.474411167423 330,153.421852284166 363,172.474411167423 363,210.579528933939 330,229.632087817196 297,210.579528933939 Z" style="fill:#b8b8b8;stroke:#1a1a1a;stroke-width:2"/>

  <!-- ═══ THIRD RING (hex_142–hex_153) ═══ -->
  <path d="M 264,267.737205583712 264,229.632087817196 297,210.579528933939 330,229.632087817196 330,267.737205583712 297,286.789764466969 264,267.737205583712 Z" style="fill:#e0e0e0;stroke:#1a1a1a;stroke-width:2"/>
  <path d="M 231,324.894882233485 231,286.789764466969 264,267.737205583712 297,286.789764466969 297,324.894882233485 264,343.947441116742 231,324.894882233485 Z" style="fill:#e0e0e0;stroke:#1a1a1a;stroke-width:2"/>
  <path d="M 198,382.052558883258 198,343.947441116742 231,324.894882233485 264,343.947441116742 264,382.052558883258 231,401.105117766515 198,382.052558883258 Z" style="fill:#e0e0e0;stroke:#1a1a1a;stroke-width:2"/>
  <path d="M 231,439.21023553303 231,401.105117766515 264,382.052558883258 297,401.105117766515 297,439.21023553303 264,458.262794416288 231,439.21023553303 Z" style="fill:#e0e0e0;stroke:#1a1a1a;stroke-width:2"/>
  <path d="M 264,496.367912182803 264,458.262794416288 297,439.210235533031 330,458.262794416288 330,496.367912182803 297,515.420471066061 264,496.367912182803 Z" style="fill:#e0e0e0;stroke:#1a1a1a;stroke-width:2"/>
  <path d="M 330,496.367912182803 330,458.262794416288 363,439.210235533031 396,458.262794416288 396,496.367912182803 363,515.420471066061 330,496.367912182803 Z" style="fill:#e0e0e0;stroke:#1a1a1a;stroke-width:2"/>
  <path d="M 396,496.367912182803 396,458.262794416288 429,439.210235533031 462,458.262794416288 462,496.367912182803 429,515.420471066061 396,496.367912182803 Z" style="fill:#e0e0e0;stroke:#1a1a1a;stroke-width:2"/>
  <path d="M 429,439.210235533031 429,401.105117766515 462,382.052558883258 495,401.105117766515 495,439.210235533031 462,458.262794416288 429,439.210235533031 Z" style="fill:#e0e0e0;stroke:#1a1a1a;stroke-width:2"/>
  <path d="M 462,382.052558883258 462,343.947441116742 495,324.894882233485 528,343.947441116742 528,382.052558883258 495,401.105117766515 462,382.052558883258 Z" style="fill:#e0e0e0;stroke:#1a1a1a;stroke-width:2"/>
  <path d="M 429,324.894882233485 429,286.789764466969 462,267.737205583712 495,286.789764466969 495,324.894882233485 462,343.947441116742 429,324.894882233485 Z" style="fill:#e0e0e0;stroke:#1a1a1a;stroke-width:2"/>
  <path d="M 396,267.737205583712 396,229.632087817196 429,210.579528933939 462,229.632087817196 462,267.737205583712 429,286.789764466969 396,267.737205583712 Z" style="fill:#e0e0e0;stroke:#1a1a1a;stroke-width:2"/>
  <path d="M 330,267.737205583712 330,229.632087817196 363,210.579528933939 396,229.632087817196 396,267.737205583712 363,286.789764466969 330,267.737205583712 Z" style="fill:#e0e0e0;stroke:#1a1a1a;stroke-width:2"/>

  <!-- ═══ INNER RING (hex_154–hex_159) ═══ -->
  <path d="M 297,324.894882233485 297,286.789764466969 330,267.737205583712 363,286.789764466969 363,324.894882233485 330,343.947441116742 297,324.894882233485 Z" style="fill:#f5e6c8;stroke:#1a1a1a;stroke-width:2"/>
  <path d="M 264,382.052558883258 264,343.947441116742 297,324.894882233485 330,343.947441116742 330,382.052558883258 297,401.105117766515 264,382.052558883258 Z" style="fill:#f5e6c8;stroke:#1a1a1a;stroke-width:2"/>
  <path d="M 297,439.21023553303 297,401.105117766515 330,382.052558883258 363,401.105117766515 363,439.21023553303 330,458.262794416288 297,439.21023553303 Z" style="fill:#f5e6c8;stroke:#1a1a1a;stroke-width:2"/>
  <path d="M 363,439.21023553303 363,401.105117766515 396,382.052558883258 429,401.105117766515 429,439.21023553303 396,458.262794416288 363,439.21023553303 Z" style="fill:#f5e6c8;stroke:#1a1a1a;stroke-width:2"/>
  <path d="M 396,382.052558883258 396,343.947441116742 429,324.894882233485 462,343.947441116742 462,382.052558883258 429,401.105117766515 396,382.052558883258 Z" style="fill:#f5e6c8;stroke:#1a1a1a;stroke-width:2"/>
  <path d="M 363,324.894882233485 363,286.789764466969 396,267.737205583712 429,286.789764466969 429,324.894882233485 396,343.947441116742 363,324.894882233485 Z" style="fill:#f5e6c8;stroke:#1a1a1a;stroke-width:2"/>

  <!-- ═══ CENTER HEX (hex_160) — WILD ═══ -->
  <path d="M 330,382.052558883258 330,343.947441116742 363,324.894882233485 396,343.947441116742 396,382.052558883258 363,401.105117766515 330,382.052558883258 Z" style="fill:#6a0dad;stroke:#1a1a1a;stroke-width:2.5"/>
  <text x="363" y="364" text-anchor="middle" dominant-baseline="central"
    style="font-size:10px;fill:white;font-family:Georgia,serif;font-weight:bold;letter-spacing:0.06em">WILD</text>

</svg>