<svg viewBox="0 0 700 700" xmlns="http://www.w3.org/2000/svg">
  <rect width="700" height="700" fill="#f5edd6"/>

  <text x="350" y="35" text-anchor="middle" font-size="18" font-family="Georgia, serif" fill="#222" letter-spacing="0.15em" font-weight="bold">KONANE</text>
  <text x="350" y="52" text-anchor="middle" font-size="11" font-family="Georgia, serif" fill="#555" font-style="italic">8x8 board - 32 pieces per player - orthogonal jumping - Hawaiian</text>

  <!-- 8x8 checkerboard -->
  <rect x="75" y="75" width="550" height="550" fill="#d4c8a8"/>
  <g fill="#8b7355">
    <!-- Dark squares row by row -->
    <rect x="75" y="75" width="68.75" height="68.75"/><rect x="212.5" y="75" width="68.75" height="68.75"/><rect x="350" y="75" width="68.75" height="68.75"/><rect x="487.5" y="75" width="68.75" height="68.75"/>
    <rect x="143.75" y="143.75" width="68.75" height="68.75"/><rect x="281.25" y="143.75" width="68.75" height="68.75"/><rect x="418.75" y="143.75" width="68.75" height="68.75"/><rect x="556.25" y="143.75" width="68.75" height="68.75"/>
    <rect x="75" y="212.5" width="68.75" height="68.75"/><rect x="212.5" y="212.5" width="68.75" height="68.75"/><rect x="350" y="212.5" width="68.75" height="68.75"/><rect x="487.5" y="212.5" width="68.75" height="68.75"/>
    <rect x="143.75" y="281.25" width="68.75" height="68.75"/><rect x="281.25" y="281.25" width="68.75" height="68.75"/><rect x="418.75" y="281.25" width="68.75" height="68.75"/><rect x="556.25" y="281.25" width="68.75" height="68.75"/>
    <rect x="75" y="350" width="68.75" height="68.75"/><rect x="212.5" y="350" width="68.75" height="68.75"/><rect x="350" y="350" width="68.75" height="68.75"/><rect x="487.5" y="350" width="68.75" height="68.75"/>
    <rect x="143.75" y="418.75" width="68.75" height="68.75"/><rect x="281.25" y="418.75" width="68.75" height="68.75"/><rect x="418.75" y="418.75" width="68.75" height="68.75"/><rect x="556.25" y="418.75" width="68.75" height="68.75"/>
    <rect x="75" y="487.5" width="68.75" height="68.75"/><rect x="212.5" y="487.5" width="68.75" height="68.75"/><rect x="350" y="487.5" width="68.75" height="68.75"/><rect x="487.5" y="487.5" width="68.75" height="68.75"/>
    <rect x="143.75" y="556.25" width="68.75" height="68.75"/><rect x="281.25" y="556.25" width="68.75" height="68.75"/><rect x="418.75" y="556.25" width="68.75" height="68.75"/><rect x="556.25" y="556.25" width="68.75" height="68.75"/>
  </g>
  <rect x="75" y="75" width="550" height="550" fill="none" stroke="#1a1a1a" stroke-width="2.5"/>

  <!-- Pieces in checkerboard pattern (all 64 squares filled, center 2 removed) -->
  <!-- Row 1 (y=109): B W B W B W B W -->
  <circle cx="109" cy="109" r="22" fill="#1a1a1a" stroke="#000" stroke-width="2"/>
  <circle cx="178" cy="109" r="22" fill="#fefefe" stroke="#555" stroke-width="2"/>
  <circle cx="247" cy="109" r="22" fill="#1a1a1a" stroke="#000" stroke-width="2"/>
  <circle cx="316" cy="109" r="22" fill="#fefefe" stroke="#555" stroke-width="2"/>
  <circle cx="384" cy="109" r="22" fill="#1a1a1a" stroke="#000" stroke-width="2"/>
  <circle cx="453" cy="109" r="22" fill="#fefefe" stroke="#555" stroke-width="2"/>
  <circle cx="522" cy="109" r="22" fill="#1a1a1a" stroke="#000" stroke-width="2"/>
  <circle cx="591" cy="109" r="22" fill="#fefefe" stroke="#555" stroke-width="2"/>
  <!-- Row 2 (y=178): W B W B W B W B -->
  <circle cx="109" cy="178" r="22" fill="#fefefe" stroke="#555" stroke-width="2"/>
  <circle cx="178" cy="178" r="22" fill="#1a1a1a" stroke="#000" stroke-width="2"/>
  <circle cx="247" cy="178" r="22" fill="#fefefe" stroke="#555" stroke-width="2"/>
  <circle cx="316" cy="178" r="22" fill="#1a1a1a" stroke="#000" stroke-width="2"/>
  <circle cx="384" cy="178" r="22" fill="#fefefe" stroke="#555" stroke-width="2"/>
  <circle cx="453" cy="178" r="22" fill="#1a1a1a" stroke="#000" stroke-width="2"/>
  <circle cx="522" cy="178" r="22" fill="#fefefe" stroke="#555" stroke-width="2"/>
  <circle cx="591" cy="178" r="22" fill="#1a1a1a" stroke="#000" stroke-width="2"/>
  <!-- Row 3 (y=247): B W B W B W B W -->
  <circle cx="109" cy="247" r="22" fill="#1a1a1a" stroke="#000" stroke-width="2"/>
  <circle cx="178" cy="247" r="22" fill="#fefefe" stroke="#555" stroke-width="2"/>
  <circle cx="247" cy="247" r="22" fill="#1a1a1a" stroke="#000" stroke-width="2"/>
  <circle cx="316" cy="247" r="22" fill="#fefefe" stroke="#555" stroke-width="2"/>
  <circle cx="384" cy="247" r="22" fill="#1a1a1a" stroke="#000" stroke-width="2"/>
  <circle cx="453" cy="247" r="22" fill="#fefefe" stroke="#555" stroke-width="2"/>
  <circle cx="522" cy="247" r="22" fill="#1a1a1a" stroke="#000" stroke-width="2"/>
  <circle cx="591" cy="247" r="22" fill="#fefefe" stroke="#555" stroke-width="2"/>
  <!-- Row 4 (y=316): W B W B _ B W B (center d4 removed) -->
  <circle cx="109" cy="316" r="22" fill="#fefefe" stroke="#555" stroke-width="2"/>
  <circle cx="178" cy="316" r="22" fill="#1a1a1a" stroke="#000" stroke-width="2"/>
  <circle cx="247" cy="316" r="22" fill="#fefefe" stroke="#555" stroke-width="2"/>
  <!-- d4 removed (empty) -->
  <circle cx="384" cy="316" r="22" fill="#fefefe" stroke="#555" stroke-width="2"/>
  <circle cx="453" cy="316" r="22" fill="#1a1a1a" stroke="#000" stroke-width="2"/>
  <circle cx="522" cy="316" r="22" fill="#fefefe" stroke="#555" stroke-width="2"/>
  <circle cx="591" cy="316" r="22" fill="#1a1a1a" stroke="#000" stroke-width="2"/>
  <!-- Row 5 (y=384): B W B _ B W B W (e5 removed, adjacent to d4) -->
  <circle cx="109" cy="384" r="22" fill="#1a1a1a" stroke="#000" stroke-width="2"/>
  <circle cx="178" cy="384" r="22" fill="#fefefe" stroke="#555" stroke-width="2"/>
  <circle cx="247" cy="384" r="22" fill="#1a1a1a" stroke="#000" stroke-width="2"/>
  <!-- d5 removed (empty) -->
  <circle cx="384" cy="384" r="22" fill="#1a1a1a" stroke="#000" stroke-width="2"/>
  <circle cx="453" cy="384" r="22" fill="#fefefe" stroke="#555" stroke-width="2"/>
  <circle cx="522" cy="384" r="22" fill="#1a1a1a" stroke="#000" stroke-width="2"/>
  <circle cx="591" cy="384" r="22" fill="#fefefe" stroke="#555" stroke-width="2"/>
  <!-- Row 6 (y=453): W B W B W B W B -->
  <circle cx="109" cy="453" r="22" fill="#fefefe" stroke="#555" stroke-width="2"/>
  <circle cx="178" cy="453" r="22" fill="#1a1a1a" stroke="#000" stroke-width="2"/>
  <circle cx="247" cy="453" r="22" fill="#fefefe" stroke="#555" stroke-width="2"/>
  <circle cx="316" cy="453" r="22" fill="#1a1a1a" stroke="#000" stroke-width="2"/>
  <circle cx="384" cy="453" r="22" fill="#fefefe" stroke="#555" stroke-width="2"/>
  <circle cx="453" cy="453" r="22" fill="#1a1a1a" stroke="#000" stroke-width="2"/>
  <circle cx="522" cy="453" r="22" fill="#fefefe" stroke="#555" stroke-width="2"/>
  <circle cx="591" cy="453" r="22" fill="#1a1a1a" stroke="#000" stroke-width="2"/>
  <!-- Row 7 (y=522): B W B W B W B W -->
  <circle cx="109" cy="522" r="22" fill="#1a1a1a" stroke="#000" stroke-width="2"/>
  <circle cx="178" cy="522" r="22" fill="#fefefe" stroke="#555" stroke-width="2"/>
  <circle cx="247" cy="522" r="22" fill="#1a1a1a" stroke="#000" stroke-width="2"/>
  <circle cx="316" cy="522" r="22" fill="#fefefe" stroke="#555" stroke-width="2"/>
  <circle cx="384" cy="522" r="22" fill="#1a1a1a" stroke="#000" stroke-width="2"/>
  <circle cx="453" cy="522" r="22" fill="#fefefe" stroke="#555" stroke-width="2"/>
  <circle cx="522" cy="522" r="22" fill="#1a1a1a" stroke="#000" stroke-width="2"/>
  <circle cx="591" cy="522" r="22" fill="#fefefe" stroke="#555" stroke-width="2"/>
  <!-- Row 8 (y=591): W B W B W B W B -->
  <circle cx="109" cy="591" r="22" fill="#fefefe" stroke="#555" stroke-width="2"/>
  <circle cx="178" cy="591" r="22" fill="#1a1a1a" stroke="#000" stroke-width="2"/>
  <circle cx="247" cy="591" r="22" fill="#fefefe" stroke="#555" stroke-width="2"/>
  <circle cx="316" cy="591" r="22" fill="#1a1a1a" stroke="#000" stroke-width="2"/>
  <circle cx="384" cy="591" r="22" fill="#fefefe" stroke="#555" stroke-width="2"/>
  <circle cx="453" cy="591" r="22" fill="#1a1a1a" stroke="#000" stroke-width="2"/>
  <circle cx="522" cy="591" r="22" fill="#fefefe" stroke="#555" stroke-width="2"/>
  <circle cx="591" cy="591" r="22" fill="#1a1a1a" stroke="#000" stroke-width="2"/>

  <!-- Empty squares highlighted -->
  <circle cx="316" cy="316" r="10" fill="none" stroke="#c0392b" stroke-width="2" stroke-dasharray="4 3"/>
  <circle cx="316" cy="384" r="10" fill="none" stroke="#c0392b" stroke-width="2" stroke-dasharray="4 3"/>

  <!-- Labels -->
  <style>.label { font-size: 12px; fill: #666; font-family: Georgia, serif; }</style>
  <text class="label" x="109" y="648" text-anchor="middle">a</text>
  <text class="label" x="178" y="648" text-anchor="middle">b</text>
  <text class="label" x="247" y="648" text-anchor="middle">c</text>
  <text class="label" x="316" y="648" text-anchor="middle">d</text>
  <text class="label" x="384" y="648" text-anchor="middle">e</text>
  <text class="label" x="453" y="648" text-anchor="middle">f</text>
  <text class="label" x="522" y="648" text-anchor="middle">g</text>
  <text class="label" x="591" y="648" text-anchor="middle">h</text>
  <text class="label" x="58" y="113" text-anchor="end">8</text>
  <text class="label" x="58" y="182" text-anchor="end">7</text>
  <text class="label" x="58" y="251" text-anchor="end">6</text>
  <text class="label" x="58" y="320" text-anchor="end">5</text>
  <text class="label" x="58" y="389" text-anchor="end">4</text>
  <text class="label" x="58" y="458" text-anchor="end">3</text>
  <text class="label" x="58" y="527" text-anchor="end">2</text>
  <text class="label" x="58" y="596" text-anchor="end">1</text>

  <!-- Legend -->
  <circle cx="120" cy="670" r="10" fill="#1a1a1a" stroke="#000" stroke-width="1.5"/>
  <text x="138" y="675" font-size="11" fill="#333" font-family="Georgia, serif">Black x32 (moves first)</text>
  <circle cx="380" cy="670" r="10" fill="#fefefe" stroke="#555" stroke-width="1.5"/>
  <text x="398" y="675" font-size="11" fill="#333" font-family="Georgia, serif">White x32</text>
  <circle cx="550" cy="670" r="6" fill="none" stroke="#c0392b" stroke-width="1.5" stroke-dasharray="3 2"/>
  <text x="562" y="675" font-size="11" fill="#333" font-family="Georgia, serif">Removed</text>
</svg>
