<svg viewBox="0 0 700 700" xmlns="http://www.w3.org/2000/svg">

  <!-- Background -->
  <rect width="700" height="700" fill="#f5edd6"/>

  <!-- Checkerboard squares -->
  <!-- Row 8 (y=50) -->
  <rect x="50"  y="50"  width="75" height="75" fill="#d4a574"/>
  <rect x="125" y="50"  width="75" height="75" fill="#f5edd6"/>
  <rect x="200" y="50"  width="75" height="75" fill="#d4a574"/>
  <rect x="275" y="50"  width="75" height="75" fill="#f5edd6"/>
  <rect x="350" y="50"  width="75" height="75" fill="#d4a574"/>
  <rect x="425" y="50"  width="75" height="75" fill="#f5edd6"/>
  <rect x="500" y="50"  width="75" height="75" fill="#d4a574"/>
  <rect x="575" y="50"  width="75" height="75" fill="#f5edd6"/>
  <!-- Row 7 (y=125) -->
  <rect x="50"  y="125" width="75" height="75" fill="#f5edd6"/>
  <rect x="125" y="125" width="75" height="75" fill="#d4a574"/>
  <rect x="200" y="125" width="75" height="75" fill="#f5edd6"/>
  <rect x="275" y="125" width="75" height="75" fill="#d4a574"/>
  <rect x="350" y="125" width="75" height="75" fill="#f5edd6"/>
  <rect x="425" y="125" width="75" height="75" fill="#d4a574"/>
  <rect x="500" y="125" width="75" height="75" fill="#f5edd6"/>
  <rect x="575" y="125" width="75" height="75" fill="#d4a574"/>
  <!-- Row 6 (y=200) -->
  <rect x="50"  y="200" width="75" height="75" fill="#d4a574"/>
  <rect x="125" y="200" width="75" height="75" fill="#f5edd6"/>
  <rect x="200" y="200" width="75" height="75" fill="#d4a574"/>
  <rect x="275" y="200" width="75" height="75" fill="#f5edd6"/>
  <rect x="350" y="200" width="75" height="75" fill="#d4a574"/>
  <rect x="425" y="200" width="75" height="75" fill="#f5edd6"/>
  <rect x="500" y="200" width="75" height="75" fill="#d4a574"/>
  <rect x="575" y="200" width="75" height="75" fill="#f5edd6"/>
  <!-- Row 5 (y=275) -->
  <rect x="50"  y="275" width="75" height="75" fill="#f5edd6"/>
  <rect x="125" y="275" width="75" height="75" fill="#d4a574"/>
  <rect x="200" y="275" width="75" height="75" fill="#f5edd6"/>
  <rect x="275" y="275" width="75" height="75" fill="#d4a574"/>
  <rect x="350" y="275" width="75" height="75" fill="#f5edd6"/>
  <rect x="425" y="275" width="75" height="75" fill="#d4a574"/>
  <rect x="500" y="275" width="75" height="75" fill="#f5edd6"/>
  <rect x="575" y="275" width="75" height="75" fill="#d4a574"/>
  <!-- Row 4 (y=350) -->
  <rect x="50"  y="350" width="75" height="75" fill="#d4a574"/>
  <rect x="125" y="350" width="75" height="75" fill="#f5edd6"/>
  <rect x="200" y="350" width="75" height="75" fill="#d4a574"/>
  <rect x="275" y="350" width="75" height="75" fill="#f5edd6"/>
  <rect x="350" y="350" width="75" height="75" fill="#d4a574"/>
  <rect x="425" y="350" width="75" height="75" fill="#f5edd6"/>
  <rect x="500" y="350" width="75" height="75" fill="#d4a574"/>
  <rect x="575" y="350" width="75" height="75" fill="#f5edd6"/>
  <!-- Row 3 (y=425) -->
  <rect x="50"  y="425" width="75" height="75" fill="#f5edd6"/>
  <rect x="125" y="425" width="75" height="75" fill="#d4a574"/>
  <rect x="200" y="425" width="75" height="75" fill="#f5edd6"/>
  <rect x="275" y="425" width="75" height="75" fill="#d4a574"/>
  <rect x="350" y="425" width="75" height="75" fill="#f5edd6"/>
  <rect x="425" y="425" width="75" height="75" fill="#d4a574"/>
  <rect x="500" y="425" width="75" height="75" fill="#f5edd6"/>
  <rect x="575" y="425" width="75" height="75" fill="#d4a574"/>
  <!-- Row 2 (y=500) -->
  <rect x="50"  y="500" width="75" height="75" fill="#d4a574"/>
  <rect x="125" y="500" width="75" height="75" fill="#f5edd6"/>
  <rect x="200" y="500" width="75" height="75" fill="#d4a574"/>
  <rect x="275" y="500" width="75" height="75" fill="#f5edd6"/>
  <rect x="350" y="500" width="75" height="75" fill="#d4a574"/>
  <rect x="425" y="500" width="75" height="75" fill="#f5edd6"/>
  <rect x="500" y="500" width="75" height="75" fill="#d4a574"/>
  <rect x="575" y="500" width="75" height="75" fill="#f5edd6"/>
  <!-- Row 1 (y=575) -->
  <rect x="50"  y="575" width="75" height="75" fill="#f5edd6"/>
  <rect x="125" y="575" width="75" height="75" fill="#d4a574"/>
  <rect x="200" y="575" width="75" height="75" fill="#f5edd6"/>
  <rect x="275" y="575" width="75" height="75" fill="#d4a574"/>
  <rect x="350" y="575" width="75" height="75" fill="#f5edd6"/>
  <rect x="425" y="575" width="75" height="75" fill="#d4a574"/>
  <rect x="500" y="575" width="75" height="75" fill="#f5edd6"/>
  <rect x="575" y="575" width="75" height="75" fill="#d4a574"/>

  <!-- Board border -->
  <rect x="50" y="50" width="600" height="600" fill="none" stroke="#1a1a1a" stroke-width="3"/>

  <!-- PIECES: Starting positions -->

  <!-- Black: top edge b8-g8 -->
  <circle cx="162.5" cy="87.5"  r="16" fill="#1a1a1a" stroke="#000" stroke-width="2"/>
  <circle cx="237.5" cy="87.5"  r="16" fill="#1a1a1a" stroke="#000" stroke-width="2"/>
  <circle cx="312.5" cy="87.5"  r="16" fill="#1a1a1a" stroke="#000" stroke-width="2"/>
  <circle cx="387.5" cy="87.5"  r="16" fill="#1a1a1a" stroke="#000" stroke-width="2"/>
  <circle cx="462.5" cy="87.5"  r="16" fill="#1a1a1a" stroke="#000" stroke-width="2"/>
  <circle cx="537.5" cy="87.5"  r="16" fill="#1a1a1a" stroke="#000" stroke-width="2"/>

  <!-- Black: bottom edge b1-g1 -->
  <circle cx="162.5" cy="612.5" r="16" fill="#1a1a1a" stroke="#000" stroke-width="2"/>
  <circle cx="237.5" cy="612.5" r="16" fill="#1a1a1a" stroke="#000" stroke-width="2"/>
  <circle cx="312.5" cy="612.5" r="16" fill="#1a1a1a" stroke="#000" stroke-width="2"/>
  <circle cx="387.5" cy="612.5" r="16" fill="#1a1a1a" stroke="#000" stroke-width="2"/>
  <circle cx="462.5" cy="612.5" r="16" fill="#1a1a1a" stroke="#000" stroke-width="2"/>
  <circle cx="537.5" cy="612.5" r="16" fill="#1a1a1a" stroke="#000" stroke-width="2"/>

  <!-- White: left edge a2-a7 -->
  <circle cx="87.5" cy="537.5" r="16" fill="#fefefe" stroke="#555" stroke-width="2"/>
  <circle cx="87.5" cy="462.5" r="16" fill="#fefefe" stroke="#555" stroke-width="2"/>
  <circle cx="87.5" cy="387.5" r="16" fill="#fefefe" stroke="#555" stroke-width="2"/>
  <circle cx="87.5" cy="312.5" r="16" fill="#fefefe" stroke="#555" stroke-width="2"/>
  <circle cx="87.5" cy="237.5" r="16" fill="#fefefe" stroke="#555" stroke-width="2"/>
  <circle cx="87.5" cy="162.5" r="16" fill="#fefefe" stroke="#555" stroke-width="2"/>

  <!-- White: right edge h2-h7 -->
  <circle cx="612.5" cy="537.5" r="16" fill="#fefefe" stroke="#555" stroke-width="2"/>
  <circle cx="612.5" cy="462.5" r="16" fill="#fefefe" stroke="#555" stroke-width="2"/>
  <circle cx="612.5" cy="387.5" r="16" fill="#fefefe" stroke="#555" stroke-width="2"/>
  <circle cx="612.5" cy="312.5" r="16" fill="#fefefe" stroke="#555" stroke-width="2"/>
  <circle cx="612.5" cy="237.5" r="16" fill="#fefefe" stroke="#555" stroke-width="2"/>
  <circle cx="612.5" cy="162.5" r="16" fill="#fefefe" stroke="#555" stroke-width="2"/>

  <!-- LABELS -->
  <style>
    .label { font-size: 12px; fill: #666; font-family: Georgia, serif; letter-spacing: 0.04em; }
  </style>

  <!-- File labels (bottom) -->
  <text class="label" x="87.5"  y="670" text-anchor="middle">a</text>
  <text class="label" x="162.5" y="670" text-anchor="middle">b</text>
  <text class="label" x="237.5" y="670" text-anchor="middle">c</text>
  <text class="label" x="312.5" y="670" text-anchor="middle">d</text>
  <text class="label" x="387.5" y="670" text-anchor="middle">e</text>
  <text class="label" x="462.5" y="670" text-anchor="middle">f</text>
  <text class="label" x="537.5" y="670" text-anchor="middle">g</text>
  <text class="label" x="612.5" y="670" text-anchor="middle">h</text>

  <!-- Rank labels (left) -->
  <text class="label" x="38" y="616.5" text-anchor="end">1</text>
  <text class="label" x="38" y="541.5" text-anchor="end">2</text>
  <text class="label" x="38" y="466.5" text-anchor="end">3</text>
  <text class="label" x="38" y="391.5" text-anchor="end">4</text>
  <text class="label" x="38" y="316.5" text-anchor="end">5</text>
  <text class="label" x="38" y="241.5" text-anchor="end">6</text>
  <text class="label" x="38" y="166.5" text-anchor="end">7</text>
  <text class="label" x="38" y="91.5"  text-anchor="end">8</text>

</svg>
