<svg viewBox="0 0 700 700" xmlns="http://www.w3.org/2000/svg">
  <rect width="700" height="700" fill="#f5edd6"/>

  <text x="350" y="35" text-anchor="middle" font-size="18" font-family="Georgia, serif" fill="#222" letter-spacing="0.15em" font-weight="bold">TZAAR</text>
  <text x="350" y="55" text-anchor="middle" font-size="11" font-family="Georgia, serif" fill="#555" font-style="italic">60-space hex board - 3 piece types - stacking - GIPF series</text>

  <!-- Central hole marker -->
  <circle cx="350" cy="350" r="10" fill="none" stroke="#a09078" stroke-width="2" stroke-dasharray="4 3" opacity="0.6"/>

  <!-- All 60 nodes computed from cube coordinates, pointy-top hex layout -->
  <!-- CX=350, CY=350, S=43 -->
  <!-- px = CX + S * sqrt(3) * (x + z/2), py = CY + S * 1.5 * z -->

  <!-- Ring 1 (6 nodes) -->
  <circle cx="387.2" cy="414.5" r="14" fill="#d4a574" stroke="#1a1a1a" stroke-width="1.5"/>
  <circle cx="424.5" cy="350.0" r="14" fill="#d4a574" stroke="#1a1a1a" stroke-width="1.5"/>
  <circle cx="387.2" cy="285.5" r="14" fill="#d4a574" stroke="#1a1a1a" stroke-width="1.5"/>
  <circle cx="312.8" cy="285.5" r="14" fill="#d4a574" stroke="#1a1a1a" stroke-width="1.5"/>
  <circle cx="275.5" cy="350.0" r="14" fill="#d4a574" stroke="#1a1a1a" stroke-width="1.5"/>
  <circle cx="312.8" cy="414.5" r="14" fill="#d4a574" stroke="#1a1a1a" stroke-width="1.5"/>

  <!-- Ring 2 (12 nodes) -->
  <circle cx="424.5" cy="479.0" r="14" fill="#d4a574" stroke="#1a1a1a" stroke-width="1.5"/>
  <circle cx="461.7" cy="414.5" r="14" fill="#d4a574" stroke="#1a1a1a" stroke-width="1.5"/>
  <circle cx="499.0" cy="350.0" r="14" fill="#d4a574" stroke="#1a1a1a" stroke-width="1.5"/>
  <circle cx="461.7" cy="285.5" r="14" fill="#d4a574" stroke="#1a1a1a" stroke-width="1.5"/>
  <circle cx="424.5" cy="221.0" r="14" fill="#d4a574" stroke="#1a1a1a" stroke-width="1.5"/>
  <circle cx="350.0" cy="221.0" r="14" fill="#d4a574" stroke="#1a1a1a" stroke-width="1.5"/>
  <circle cx="275.5" cy="221.0" r="14" fill="#d4a574" stroke="#1a1a1a" stroke-width="1.5"/>
  <circle cx="238.3" cy="285.5" r="14" fill="#d4a574" stroke="#1a1a1a" stroke-width="1.5"/>
  <circle cx="201.0" cy="350.0" r="14" fill="#d4a574" stroke="#1a1a1a" stroke-width="1.5"/>
  <circle cx="238.3" cy="414.5" r="14" fill="#d4a574" stroke="#1a1a1a" stroke-width="1.5"/>
  <circle cx="275.5" cy="479.0" r="14" fill="#d4a574" stroke="#1a1a1a" stroke-width="1.5"/>
  <circle cx="350.0" cy="479.0" r="14" fill="#d4a574" stroke="#1a1a1a" stroke-width="1.5"/>

  <!-- Ring 3 (18 nodes) -->
  <circle cx="461.7" cy="543.5" r="14" fill="#d4a574" stroke="#1a1a1a" stroke-width="1.5"/>
  <circle cx="499.0" cy="479.0" r="14" fill="#d4a574" stroke="#1a1a1a" stroke-width="1.5"/>
  <circle cx="536.2" cy="414.5" r="14" fill="#d4a574" stroke="#1a1a1a" stroke-width="1.5"/>
  <circle cx="573.4" cy="350.0" r="14" fill="#d4a574" stroke="#1a1a1a" stroke-width="1.5"/>
  <circle cx="536.2" cy="285.5" r="14" fill="#d4a574" stroke="#1a1a1a" stroke-width="1.5"/>
  <circle cx="499.0" cy="221.0" r="14" fill="#d4a574" stroke="#1a1a1a" stroke-width="1.5"/>
  <circle cx="461.7" cy="156.5" r="14" fill="#d4a574" stroke="#1a1a1a" stroke-width="1.5"/>
  <circle cx="387.2" cy="156.5" r="14" fill="#d4a574" stroke="#1a1a1a" stroke-width="1.5"/>
  <circle cx="312.8" cy="156.5" r="14" fill="#d4a574" stroke="#1a1a1a" stroke-width="1.5"/>
  <circle cx="238.3" cy="156.5" r="14" fill="#d4a574" stroke="#1a1a1a" stroke-width="1.5"/>
  <circle cx="201.0" cy="221.0" r="14" fill="#d4a574" stroke="#1a1a1a" stroke-width="1.5"/>
  <circle cx="163.8" cy="285.5" r="14" fill="#d4a574" stroke="#1a1a1a" stroke-width="1.5"/>
  <circle cx="126.6" cy="350.0" r="14" fill="#d4a574" stroke="#1a1a1a" stroke-width="1.5"/>
  <circle cx="163.8" cy="414.5" r="14" fill="#d4a574" stroke="#1a1a1a" stroke-width="1.5"/>
  <circle cx="201.0" cy="479.0" r="14" fill="#d4a574" stroke="#1a1a1a" stroke-width="1.5"/>
  <circle cx="238.3" cy="543.5" r="14" fill="#d4a574" stroke="#1a1a1a" stroke-width="1.5"/>
  <circle cx="312.8" cy="543.5" r="14" fill="#d4a574" stroke="#1a1a1a" stroke-width="1.5"/>
  <circle cx="387.2" cy="543.5" r="14" fill="#d4a574" stroke="#1a1a1a" stroke-width="1.5"/>

  <!-- Ring 4 (24 nodes) -->
  <circle cx="499.0" cy="608.0" r="14" fill="#d4a574" stroke="#1a1a1a" stroke-width="1.5"/>
  <circle cx="536.2" cy="543.5" r="14" fill="#d4a574" stroke="#1a1a1a" stroke-width="1.5"/>
  <circle cx="573.4" cy="479.0" r="14" fill="#d4a574" stroke="#1a1a1a" stroke-width="1.5"/>
  <circle cx="610.7" cy="414.5" r="14" fill="#d4a574" stroke="#1a1a1a" stroke-width="1.5"/>
  <circle cx="647.9" cy="350.0" r="14" fill="#d4a574" stroke="#1a1a1a" stroke-width="1.5"/>
  <circle cx="610.7" cy="285.5" r="14" fill="#d4a574" stroke="#1a1a1a" stroke-width="1.5"/>
  <circle cx="573.4" cy="221.0" r="14" fill="#d4a574" stroke="#1a1a1a" stroke-width="1.5"/>
  <circle cx="536.2" cy="156.5" r="14" fill="#d4a574" stroke="#1a1a1a" stroke-width="1.5"/>
  <circle cx="499.0" cy="92.0" r="14" fill="#d4a574" stroke="#1a1a1a" stroke-width="1.5"/>
  <circle cx="424.5" cy="92.0" r="14" fill="#d4a574" stroke="#1a1a1a" stroke-width="1.5"/>
  <circle cx="350.0" cy="92.0" r="14" fill="#d4a574" stroke="#1a1a1a" stroke-width="1.5"/>
  <circle cx="275.5" cy="92.0" r="14" fill="#d4a574" stroke="#1a1a1a" stroke-width="1.5"/>
  <circle cx="201.0" cy="92.0" r="14" fill="#d4a574" stroke="#1a1a1a" stroke-width="1.5"/>
  <circle cx="163.8" cy="156.5" r="14" fill="#d4a574" stroke="#1a1a1a" stroke-width="1.5"/>
  <circle cx="126.6" cy="221.0" r="14" fill="#d4a574" stroke="#1a1a1a" stroke-width="1.5"/>
  <circle cx="89.3" cy="285.5" r="14" fill="#d4a574" stroke="#1a1a1a" stroke-width="1.5"/>
  <circle cx="52.1" cy="350.0" r="14" fill="#d4a574" stroke="#1a1a1a" stroke-width="1.5"/>
  <circle cx="89.3" cy="414.5" r="14" fill="#d4a574" stroke="#1a1a1a" stroke-width="1.5"/>
  <circle cx="126.6" cy="479.0" r="14" fill="#d4a574" stroke="#1a1a1a" stroke-width="1.5"/>
  <circle cx="163.8" cy="543.5" r="14" fill="#d4a574" stroke="#1a1a1a" stroke-width="1.5"/>
  <circle cx="201.0" cy="608.0" r="14" fill="#d4a574" stroke="#1a1a1a" stroke-width="1.5"/>
  <circle cx="275.5" cy="608.0" r="14" fill="#d4a574" stroke="#1a1a1a" stroke-width="1.5"/>
  <circle cx="350.0" cy="608.0" r="14" fill="#d4a574" stroke="#1a1a1a" stroke-width="1.5"/>
  <circle cx="424.5" cy="608.0" r="14" fill="#d4a574" stroke="#1a1a1a" stroke-width="1.5"/>

  <!-- Legend -->
  <g font-family="Georgia, serif" font-size="11" fill="#333">
    <circle cx="120" cy="660" r="10" fill="#1a1a1a" stroke="#000" stroke-width="1.5"/>
    <text x="138" y="665">Tzaar (6 each)</text>
    <circle cx="280" cy="660" r="8" fill="#1a1a1a" stroke="#000" stroke-width="1.5"/>
    <text x="296" y="665">Tzarra (9 each)</text>
    <circle cx="440" cy="660" r="6" fill="#1a1a1a" stroke="#000" stroke-width="1.5"/>
    <text x="454" y="665">Tott (15 each)</text>
    <circle cx="120" cy="684" r="10" fill="#fefefe" stroke="#555" stroke-width="1.5"/>
    <text x="138" y="689">White (30 pieces)</text>
    <circle cx="280" cy="684" r="10" fill="#1a1a1a" stroke="#000" stroke-width="1.5"/>
    <text x="298" y="689">Black (30 pieces)</text>
    <text x="440" y="689" fill="#888">60 spaces, center hole, random setup</text>
  </g>
</svg>
